<?xml version="1.0"?><svg viewBox="0 0 64 64" xmlns="http://www.w3.org/2000/svg"><path d="M21.27 22.11c-.112.386.773 3.088 1.16 3.584.387.496 1.382.055 1.548-.33.166-.387-1.327-3.585-1.548-3.695-.22-.11-1.16.44-1.16.44zm3.04-12.46s-2.14 3.323-1.88 3.528c1.05.827 4.642-1.158 4.753-1.434.11-.276 5.528 3.198 5.528 3.198s-.054-5.128-.22-5.68c-.166-.55 4.367-3.914 4.146-4.245-.22-.33-4.865-.55-5.252-.55-.386 0-1.38-4.467-2.044-4.467-.663 0-3.814 5.46-3.925 5.68-.11.22-4.698.495-4.698.936 0 .442 3.592 3.033 3.592 3.033zm2.597-2.923c.498-.55 1.714-4.3 2.1-4.19.388.11.83 3.253.996 3.308s3.26.276 3.26.276-2.487 2.813-2.487 2.978c0 .165.608 3.088.608 3.088s-3.262-2.095-3.593-2.095c-.33 0-2.32.938-2.32.938l.386-1.875-1.935-1.985c.334 0 2.49.11 2.987-.44zm-20.65 8.56c1.494-.477 3.374-3.49.974-4.588-2.4-1.1-4.513.71-4.2 2.328.324 1.667 1.733 2.734 3.227 2.258zm.197-3.605c1.257.576.272 2.154-.51 2.403-.783.25-1.52-.31-1.69-1.183-.164-.848.943-1.796 2.2-1.22zM58.084 7.5c-.276-3.144-3.417-4.263-4.92-2.978-1.548 1.323-1.824 3.418-.442 4.687 1.382 1.266 5.64 1.43 5.362-1.71zM54.02 5.714c.788-.673 2.433-.087 2.578 1.56.145 1.646-2.085 1.56-2.81.895s-.578-1.76.233-2.455zm5.606 16.706c-2.874-1.316-5.405.852-5.03 2.79.387 1.997 2.075 3.273 3.864 2.704 1.79-.57 4.04-4.176 1.166-5.493zm-1.542 4.056c-.937.298-1.82-.37-2.024-1.416-.196-1.015 1.13-2.15 2.635-1.46 1.506.688.326 2.577-.61 2.876zm-1.88 27.393c-.276-.11-.22-4.467-1.05-4.522-.828-.055-3.205 3.143-3.592 3.363-.387.22-3.777-1.6-3.925-1.157-.166.496 1.216 3.474 1.272 3.915.054.44-2.157 4.246-2.157 4.246s3.814-.55 4.2-.55c.388 0 2.433 4.355 2.986 4.355.552 0 .994-4.302 1.105-4.688.11-.386 4.533-1.82 4.533-2.095 0-.276-3.097-2.758-3.373-2.868zm-2.487 3.914c-.166.33-.442 2.26-.442 2.26s-1.437-2.866-1.658-2.81c-.22.054-2.653.88-2.488.66.165-.22 1.49-2.48 1.49-2.48s-.883-1.71-.94-1.93c-.04-.17 1.99 1.6 2.49 1.103.496-.496 2.1-2.757 2.265-2.757.166 0 .166 3.143.497 3.308.332.165 1.99 1.103 1.99 1.103s-3.04 1.213-3.205 1.544zm3.096-18.802c-.276-.44-10.226-7.72-10.226-7.72s.166-17.478.276-18.14c.11-.66-.83-1.212-1.548-1.267-.718-.055-14.04 9.318-14.372 9.318-.332 0-9.066-5.57-11.498-5.57-2.432 0-2.874 1.876-2.874 1.876-.165 1.267 3.096 11.798 3.262 12.625.166.827-8.18 16.982-8.513 17.644-.333.66.44 1.598 1.215 1.653.774.055 11.056-2.812 12.438-2.59 1.382.22 7.463 11.91 7.794 12.57.332.662 2.266.607 2.764.165.5-.44 5.032-13.674 5.53-14.115.497-.44 15.31-2.647 15.753-2.977.442-.33.276-3.033 0-3.474zm-3.704 1.654c-.554 0-1.162-1.544-1.328-1.544-.166 0-1.16 0-1.106.165.055.165.884 1.764.884 1.764s-.774.222-.94.166c-.166-.055-2.156-4.135-2.432-4.246-.276-.11-.995.33-.995.33l2.045 4.08s-1.27.332-1.327.166c-.054-.165-1.768-2.977-2.044-3.033-.276-.055-.774.882-.774.882s1.77 2.536 1.603 2.536c-.166 0-1.16.332-1.327.11-.166-.22-1.216-2.315-1.437-2.37-.22-.055-1.38.386-1.326.55.055.166 1.492 2.317 1.327 2.317-.165 0-1.602.276-1.657.055-.055-.22-1.05-2.205-1.05-2.205s-.94.055-.995.496c-.055.44.442 1.71.442 1.71S38.405 44 38.35 44.274c-.055.276-4.2 11.47-4.2 11.47s-2.875-4.963-5.142-8.272c-2.266-3.308-2.82-3.584-3.372-3.694-.553-.11-11.332 2.866-11.11 2.15.22-.718 8.4-15.55 8.346-15.88-.055-.33-4.146-11.524-3.814-12.02.22-.33 10.613 5.955 11.387 5.79.774-.166 13.212-7.94 13.377-7.94.166 0-.332 16.32-.22 16.76.11.442 10.89 7.72 10.89 7.72s-.83.276-1.383.276zm-29.747 15.53c-2.875-1.318-5.404.85-5.03 2.788.387 1.997 2.075 3.273 3.864 2.704 1.79-.57 4.04-4.176 1.166-5.493zm-1.54 4.054c-.938.298-1.822-.37-2.025-1.416-.196-1.015 1.13-2.15 2.635-1.46 1.505.688.326 2.577-.61 2.876zm-14.947-.375c-2.12-.972-3.99.628-3.712 2.06.285 1.473 1.53 2.415 2.85 1.995 1.32-.42 2.983-3.083.862-4.055zm-1.138 2.993c-.692.22-1.344-.273-1.494-1.045-.145-.75.833-1.587 1.945-1.078 1.11.508.24 1.903-.452 2.123zm4.137-33.25C7 28.273 4.47 30.44 4.845 32.38c.387 1.997 2.075 3.274 3.864 2.704 1.788-.57 4.04-4.176 1.165-5.493zm-1.54 4.056c-.938.298-1.822-.37-2.025-1.416-.196-1.015 1.13-2.15 2.635-1.46 1.505.688.326 2.577-.61 2.876z"/></svg>